<?xml version="1.0" encoding="UTF-8" standalone="no"?>
<!-- Created with Inkscape (http://www.inkscape.org/) -->

<svg
   width="64.160416mm"
   height="18.414999mm"
   viewBox="0 0 64.160416 18.414999"
   version="1.1"
   id="svg5"
   inkscape:version="1.2.1 (9c6d41e410, 2022-07-14)"
   sodipodi:docname="logo_skyld.svg"
   xmlns:inkscape="http://www.inkscape.org/namespaces/inkscape"
   xmlns:sodipodi="http://sodipodi.sourceforge.net/DTD/sodipodi-0.dtd"
   xmlns="http://www.w3.org/2000/svg"
   xmlns:svg="http://www.w3.org/2000/svg">
  <sodipodi:namedview
     id="namedview7"
     pagecolor="#ffffff"
     bordercolor="#000000"
     borderopacity="0.25"
     inkscape:showpageshadow="2"
     inkscape:pageopacity="0.0"
     inkscape:pagecheckerboard="0"
     inkscape:deskcolor="#d1d1d1"
     inkscape:document-units="mm"
     showgrid="false"
     inkscape:zoom="1.0636576"
     inkscape:cx="402.8552"
     inkscape:cy="243.49941"
     inkscape:window-width="1920"
     inkscape:window-height="986"
     inkscape:window-x="-11"
     inkscape:window-y="-11"
     inkscape:window-maximized="1"
     inkscape:current-layer="layer1" />
  <defs
     id="defs2">
    <rect
       x="295.20779"
       y="266.06305"
       width="226.57668"
       height="118.45917"
       id="rect184" />
    <rect
       x="178.06467"
       y="264.96024"
       width="184.54021"
       height="0"
       id="rect113" />
  </defs>
  <g
     inkscape:label="Calque 1"
     inkscape:groupmode="layer"
     id="layer1"
     transform="translate(-0.93979999,18.034)">
    <g
       aria-label="SKYLD
"
       transform="scale(0.26458333)"
       id="text111"
       style="font-weight:600;font-size:96px;font-family:'Advent Pro';-inkscape-font-specification:'Advent Pro, Semi-Bold';white-space:pre">
      <path
         d="m 12.864,-18.144 q 0.48,4.512 4.032,7.584 3.552,3.072 9.216,3.072 6.336,0 9.888,-2.88 3.552,-2.88 3.552,-7.392 0,-4.224 -2.208,-7.008 -2.112,-2.88 -5.28,-4.512 -3.168,-1.728 -8.736,-3.936 -5.952,-2.304 -9.6,-4.224 -3.552,-2.016 -6.048,-5.376 -2.496,-3.456 -2.496,-8.736 0,-4.224 2.4,-7.968 2.4,-3.84 7.296,-6.24 4.896,-2.4 12,-2.4 4.704,0 7.776,0.672 3.072,0.672 6.24,2.208 l -2.784,8.256 q -5.664,-2.304 -11.136,-2.304 -5.952,0 -9.216,2.208 -3.168,2.112 -3.168,5.76 0,2.4 1.728,4.224 1.728,1.824 4.224,3.168 2.592,1.248 7.296,3.264 6.624,2.688 10.848,5.184 4.32,2.4 7.392,6.624 3.072,4.128 3.072,10.368 0,8.64 -5.664,14.112 -5.664,5.472 -17.28,5.472 -7.104,0 -12.192,-2.592 -4.992,-2.688 -7.68,-6.816 -2.592,-4.224 -2.784,-8.736 z"
         id="path318" />
      <path
         d="m 72.768079,-28.896 -2.112,3.168 V 0 h -9.216 v -67.296 h 9.216 v 26.304 l 17.664,-26.304 h 10.464 l -20.832,30.432 L 102.91208,0 H 92.160079 Z"
         id="path320" />
      <path
         d="m 135.168,-5.088 q 2.88,-0.576 4.8,-2.784 1.92,-2.208 1.92,-7.488 v -8.256 q -2.112,1.44 -5.28,2.4 -3.168,0.864 -6.624,0.864 -9.984,0 -16.032,-5.472 Q 108,-31.296 108,-40.992 V -67.2 h 8.736 v 25.92 q 0,6.144 3.456,9.216 3.456,3.072 9.792,3.072 4.896,0 7.872,-1.632 3.072,-1.728 4.032,-4.224 V -67.2 h 8.736 v 52.224 q 0,7.392 -3.072,11.52 -2.976,4.128 -9.792,4.896 z"
         id="path322" />
      <path
         d="m 163.488,-67.2 h 8.736 v 59.232 h 25.92 V 0 h -34.656 z"
         id="path324" />
      <path
         d="m 205.72805,-67.296 h 18.048 q 10.848,0 16.512,5.952 5.76,5.952 5.76,15.84 V -19.2 q 0,19.2 -20.352,19.2 h -19.968 z m 31.584,20.832 q 0,-6.24 -3.456,-9.216 -3.36,-2.976 -9.12,-2.976 h -10.272 v 50.688 h 9.696 q 5.856,0 9.504,-2.016 3.648,-2.016 3.648,-8.256 z"
         id="path326" />
    </g>
    <text
       xml:space="preserve"
       transform="scale(0.26458333)"
       id="text182"
       style="font-weight:600;font-size:96px;font-family:'Advent Pro';-inkscape-font-specification:'Advent Pro, Semi-Bold';white-space:pre;shape-inside:url(#rect184);fill:#000000" />
  </g>
</svg>
