<svg viewBox="0 0 1000 1001.0002" xmlns="http://www.w3.org/2000/svg"><path d="M811 168.5q-72 0-129-10-49-8-87-24-30-12-51-29-16-11-25-24-7-9-8-11.5t-4-5q-3-2.5-7-2.5t-7 2.5q-3 2.5-4 5t-8 11.5q-9 12-25 24-21 16-52 29-37 15-86 24-58 10-129 10-6 0-9.5 4t-3.5 9v435q0 78 77 159 56 58 148 113 47 28 93 49h1q1 1 5 1t5-1h1q46-21 93-49 92-55 148-113 77-81 77-159v-435q0-5-3.5-9t-9.5-4zm-92 187q-79 73-149 174-60 86-83 147-2 4-5 4v1h-1q-3 0-5-2l-169-172q-1-2 25-24t27-21l93 73q40-48 92-95 76-70 157-119 1 0 11 13l9 13q2 4-2 8z"/></svg>