<svg viewBox="0 0 1000 1001.0002" xmlns="http://www.w3.org/2000/svg"><path d="M491 938.5q-3-2-10-1l-101-1q-21 0-33.5-9.5T327 897.5q-5-19-14-57l-7-31q-10-50-45-87l-16-18q-19-20-9-42 13-25 38-25 42-3 84 34 32 31 42 68 2 4 4 6v-418q-1-24 16.5-36t38.5-9q36 6 39 42l14 281 1-3q5-9 8-12 18-23 54-18 30 5 40 30 4 10 4 30l1 10q1 3 1 8 7-22 23-30 19-10 36.5-5.5t25.5 11q8 6.5 12 21t6 44.5q1 0 1-1l1-2q4-15 17-22.5t26-5.5q18 2 29.5 11.5t13.5 25.5q2 11 2 32v20q0 72-9 144-3 34-36 43l-3 1-275 1zm29-876q2 1 7.5 3.5t7.5 4.5q19 14 14 38-10 41-21 76-5 18-22 24t-33-4q-10-6-14-17.5t-1-24.5l18-69q6-22 29-30l15-1zm-295 168q6 1 22 5l13 4q10 2 28 7l16 5q16 5 24 17.5t4 27.5q-4 15-17 23t-29 4q-31-7-74-20-14-4-21.5-15.5t-5-25.5q2.5-14 13-23t26.5-9zm-16 217q0-22 18-32 44-26 66-38 15-8 29-4t21.5 17.5q7.5 13.5 4 28T330 441.5q-44 26-66 38-19 10-37 0t-18-32zm472-21q-7 1-19-3l-64-17q-16-5-23-17.5t-3-28q4-15.5 17-22.5t29-3q48 12 72 19 14 5 22 16.5t6 25q-2 13.5-13 22.5t-24 8zm-349-340q22 0 32 18 26 44 38 67 10 17 2 33.5t-27 20.5q-23 5-36-14-27-44-43-75-8-17 3.5-33t30.5-17zm222 162q0-21 16-30 38-23 71-41 13-7 26.5-3t20.5 16q8 14 5 28t-16 22q-37 24-72 41-18 9-34.5-2t-16.5-31z"/></svg>