<svg viewBox="0 0 1000 1001.0002" xmlns="http://www.w3.org/2000/svg"><path d="M418 740.5q-19 19-36 15-10-3-27-21l-97-97q-11-10-15-16-7-9-4.5-20t17.5-25l-10-2-6 1q-12 3-17 6l-28 17q-38 21-56 34-16 11-28 6-7-3-18-17-7-9-11-12-10-7-7-16 2-4 10-13l4-4q78-90 119-133 11-12 34-16 42-6 63-4 25 2 43-10 15-10 31-33 59-82 125-143 72-66 155-109 36-19 48-22 16-4 30 4 10 7 38 35l16 16q61 63 93 92 10 10 11.5 18t-3.5 20q-59 142-180 248-21 18-65 52-35 27-52 41-7 6-12.5 16t-6.5 20q-2 15-3.5 45t-3.5 46q-2 16-15 29-30 27-92 80l-46 40q-10 9-16 10-9 2-16-8-3-5-14-12.5t-14-13.5q-4-9 4-23l54-92q3-4 7-14l2-6-5-9zm253-478q-27 0-47 19.5t-20 45.5q0 26 19.5 45.5t44.5 20.5q25 1 46-19.5t21-46q0-25.5-19.5-45T671 262.5zm-609 665q35-22 51-36 14-11 19-25 2-7 1.5-15.5t-4-12q-3.5-3.5-21.5-1.5l-6 1q-3 1-11 6l-4 3q-4-28 10-52 10-16 35-37 1-2 4.5-3.5t4.5-2.5l27-34q-13-5-42-12l9-9q15-17 24-22 27-16 61.5-12t58.5 25q63 52 40 126t-101 101l-1-3-2-45-15 7q-16 7-23.5 12.5T155 905.5q-14 13-22 19-19 13-32 13.5t-39-10.5zm848-683q-75-75-153-156l44-7q78-14 117-19 25-2 18.5 31.5T918 196.5l-8 48z"/></svg>